<?xml version="1.0" encoding="utf-8"?><svg viewBox="0 0 2000 2000" xmlns="http://www.w3.org/2000/svg" xmlns:xlink="http://www.w3.org/1999/xlink"><style>:root>svg{display:none}:root>svg:target{display:block}</style><svg viewBox="0 0 448 512" id="burger"><path d="M16 288h416a16 16 0 0016-16v-32a16 16 0 00-16-16H16a16 16 0 00-16 16v32a16 16 0 0016 16z" opacity=".4"/><path d="M432 384H16a16 16 0 00-16 16v32a16 16 0 0016 16h416a16 16 0 0016-16v-32a16 16 0 00-16-16zm0-320H16A16 16 0 000 80v32a16 16 0 0016 16h416a16 16 0 0016-16V80a16 16 0 00-16-16z" class="afa-primary"/></svg><svg viewBox="0 0 352 512" id="close"><path d="M9.21 356.07a31.46 31.46 0 000 44.48l22.24 22.24a31.46 31.46 0 0044.48 0L176 322.72 109.28 256zm333.58-244.62l-22.24-22.24a31.46 31.46 0 00-44.48 0L176 189.28 242.72 256l100.07-100.07a31.46 31.46 0 000-44.48z" opacity=".4"/><path d="M342.79 356.07a31.46 31.46 0 010 44.48l-22.24 22.24a31.46 31.46 0 01-44.48 0L9.21 155.93a31.46 31.46 0 010-44.48l22.24-22.24a31.46 31.46 0 0144.48 0z" class="bfa-primary"/></svg><svg viewBox="0 0 512 512" id="copiright"><path d="M256 8C119 8 8 119 8 256s111 248 248 248 248-111 248-248S393 8 256 8zm117.13 346.75c-1.59 1.87-39.77 45.73-109.85 45.73-84.69 0-144.48-63.26-144.48-145.56 0-81.31 62-143.4 143.76-143.4 67 0 102 37.31 103.42 38.9a12 12 0 011.24 14.58l-22.38 34.7a12 12 0 01-16.59 3.57 11.79 11.79 0 01-1.64-1.27c-.24-.21-26.53-23.88-61.88-23.88-46.12 0-73.92 33.58-73.92 76.08 0 39.61 25.52 79.7 74.28 79.7 38.7 0 65.28-28.34 65.54-28.63a12 12 0 0116.95-.73h.05a12.2 12.2 0 011.55 1.74l24.55 33.58a12 12 0 01-.6 14.85z" opacity=".4"/><path d="M373.13 354.75c-1.59 1.87-39.77 45.73-109.85 45.73-84.69 0-144.48-63.26-144.48-145.56 0-81.31 62-143.4 143.76-143.4 67 0 102 37.31 103.42 38.9a12 12 0 011.24 14.58l-22.38 34.7a12 12 0 01-16.59 3.57 11.79 11.79 0 01-1.64-1.27c-.24-.21-26.53-23.88-61.88-23.88-46.12 0-73.92 33.58-73.92 76.08 0 39.61 25.52 79.7 74.28 79.7 38.7 0 65.28-28.34 65.54-28.63a12 12 0 0116.95-.73h.05a12.2 12.2 0 011.55 1.74l24.55 33.58a12 12 0 01-.6 14.85z" class="cfa-primary"/></svg><svg viewBox="0 0 512 512" id="facebook" xmlns="http://www.w3.org/2000/svg"><path d="M325.581 111.282h46.654c9.995 0 18.128-8.132 18.128-18.128V18.187c0-9.996-8.132-18.128-18.128-18.128H308.17A75.982 75.982 0 00304.994 0c-12.088 0-54.123 2.385-87.472 33.064-36.401 33.493-32.918 73.557-31.386 83.435v48.84h-46.371c-9.995 0-18.128 8.132-18.128 18.128v80.629c0 9.997 8.132 18.13 18.128 18.13h43.688v211.647c0 9.995 8.132 18.128 18.128 18.128h91.368c9.995 0 18.128-8.133 18.128-18.128V283.271h51.749c9.214 0 16.956-6.903 18.009-16.056l9.409-81.672a18.147 18.147 0 00-4.477-14.14 18.149 18.149 0 00-13.53-6.063h-61.156v-40.997c-.002-8.471 2.309-13.061 14.5-13.061zm-24.7 74.457h68.807l-8.886 77.134h-59.924c-5.632 0-10.199 4.566-10.199 10.199v218.53H203.85V272.026c0-5.633-4.567-10.199-10.199-10.199h-51.617v-76.09h54.301c5.632 0 10.199-4.566 10.199-10.199V115.67c0-.585-.05-1.17-.15-1.747-1.075-6.175-4.918-38.365 24.95-65.847 27.915-25.681 63.439-27.677 73.661-27.677 1.433 0 2.286.038 2.442.046.168.008.336.012.504.012h62.026v70.428h-44.385c-21.854 0-34.901 12.508-34.901 33.458v51.196c0 5.634 4.568 10.2 10.2 10.2z"/><path d="M224.382 343.713c-5.632 0-10.199 4.566-10.199 10.199v5.1c0 5.633 4.567 10.199 10.199 10.199s10.199-4.566 10.199-10.199v-5.1c0-5.633-4.568-10.199-10.199-10.199zm0 37.737c-5.632 0-10.199 4.566-10.199 10.199v77.514c0 5.633 4.567 10.199 10.199 10.199s10.199-4.566 10.199-10.199v-77.514c0-5.633-4.568-10.199-10.199-10.199z"/></svg><svg viewBox="0 0 640 512" id="games"><path d="M638.59 368.22l-33.37-211.59c-8.86-50.26-48.4-90.77-100.66-103.13h-.07a803.19 803.19 0 00-369 0C83.17 65.86 43.64 106.36 34.78 156.63L1.41 368.22C-8.9 426.73 38.8 480 101.51 480c49.67 0 93.77-30.07 109.48-74.64l7.52-21.36h203l7.49 21.36C444.72 449.93 488.82 480 538.49 480c62.71 0 110.41-53.27 100.1-111.78zM280 236a12 12 0 01-12 12h-52v52a12 12 0 01-12 12h-24a12 12 0 01-12-12v-52h-52a12 12 0 01-12-12v-24a12 12 0 0112-12h52v-52a12 12 0 0112-12h24a12 12 0 0112 12v52h52a12 12 0 0112 12zm152 76a40 40 0 1140-40 40 40 0 01-40 40zm64-96a40 40 0 1140-40 40 40 0 01-40 40z" opacity=".4"/><path d="M280 236a12 12 0 01-12 12h-52v52a12 12 0 01-12 12h-24a12 12 0 01-12-12v-52h-52a12 12 0 01-12-12v-24a12 12 0 0112-12h52v-52a12 12 0 0112-12h24a12 12 0 0112 12v52h52a12 12 0 0112 12z" class="efa-primary"/></svg><svg viewBox="0 0 512 512" id="instagram" xmlns="http://www.w3.org/2000/svg"><path d="M359.312 0H152.689C68.849 0 .64 68.208.64 152.049v207.903C.64 443.792 68.849 512 152.689 512h206.623c83.839 0 152.048-68.208 152.048-152.048V152.049C511.359 68.208 443.151 0 359.312 0zm131.649 359.951c0 72.593-59.057 131.65-131.649 131.65H152.689c-72.593 0-131.65-59.057-131.65-131.649V152.049c0-72.593 59.057-131.65 131.65-131.65h206.623c72.592 0 131.649 59.057 131.649 131.65v207.902z"/><path d="M359.312 58.294H152.689c-51.698 0-93.756 42.057-93.756 93.755v207.904c0 51.697 42.058 93.755 93.756 93.755h206.623c51.697 0 93.755-42.058 93.755-93.755V152.049c0-51.697-42.058-93.755-93.755-93.755zm73.357 301.657c0 40.449-32.908 73.357-73.357 73.357H152.689c-40.45 0-73.358-32.908-73.358-73.357V152.048c0-40.449 32.908-73.357 73.358-73.357v.001h206.623c40.449 0 73.357 32.908 73.357 73.357v207.902z"/><path d="M256 124.178c-72.686 0-131.821 59.135-131.821 131.822S183.313 387.821 256 387.821 387.821 328.687 387.821 256 328.686 124.178 256 124.178zm0 243.244c-61.438 0-111.422-49.984-111.422-111.422 0-61.439 49.984-111.423 111.422-111.423 61.439 0 111.422 49.984 111.422 111.423 0 61.438-49.984 111.422-111.422 111.422z"/><path d="M256 181.041c-41.332 0-74.959 33.627-74.959 74.959s33.627 74.959 74.959 74.959c41.333 0 74.959-33.627 74.959-74.959S297.332 181.041 256 181.041zm0 129.52c-30.085 0-54.561-24.476-54.561-54.561s24.476-54.561 54.561-54.561 54.561 24.475 54.561 54.561c0 30.085-24.476 54.561-54.561 54.561zM380.485 99.843c-17.464 0-31.673 14.208-31.673 31.673s14.208 31.672 31.673 31.672c17.463 0 31.672-14.207 31.672-31.672s-14.209-31.673-31.672-31.673zm0 42.946c-6.216 0-11.274-5.057-11.274-11.273 0-6.217 5.058-11.274 11.274-11.274s11.273 5.058 11.273 11.274c.001 6.216-5.056 11.273-11.273 11.273zM239.681 463.044h-95.872c-5.633 0-10.199 4.566-10.199 10.199s4.566 10.199 10.199 10.199h95.872c5.633 0 10.199-4.566 10.199-10.199s-4.566-10.199-10.199-10.199zm38.757 0h-6.12c-5.632 0-10.199 4.566-10.199 10.199s4.567 10.199 10.199 10.199h6.12c5.633 0 10.199-4.566 10.199-10.199s-4.567-10.199-10.199-10.199z"/></svg><svg viewBox="0 0 512 512" id="release"><path d="M181.333 202.667c-5.888 0-10.667 4.779-10.667 10.667v53.333l-44.8-59.733c-2.752-3.669-7.552-5.184-11.904-3.712a10.668 10.668 0 00-7.296 10.112v85.333c0 5.888 4.779 10.667 10.667 10.667S128 304.555 128 298.667v-53.333l44.8 59.733a10.688 10.688 0 008.533 4.267c1.131 0 2.261-.171 3.371-.555A10.668 10.668 0 00192 298.667v-85.333c0-5.889-4.779-10.667-10.667-10.667zM266.667 288h-32v-64h32c5.888 0 10.667-4.779 10.667-10.667s-4.779-10.667-10.667-10.667H224c-5.888 0-10.667 4.779-10.667 10.667v85.333c0 5.888 4.779 10.667 10.667 10.667h42.667c5.888 0 10.667-4.779 10.667-10.667S272.555 288 266.667 288z"/><path d="M266.667 245.333H224c-5.888 0-10.667 4.779-10.667 10.667s4.779 10.667 10.667 10.667h42.667c5.888 0 10.667-4.779 10.667-10.667-.001-5.888-4.779-10.667-10.667-10.667zm130.56-42.346c-5.803-1.429-11.499 2.027-12.928 7.765l-12.437 49.792-9.749-29.248c-2.901-8.704-17.323-8.704-20.245 0l-9.749 29.248-12.437-49.792c-1.429-5.739-7.296-9.216-12.928-7.765-5.717 1.429-9.173 7.211-7.765 12.928l21.333 85.333c1.152 4.587 5.205 7.893 9.941 8.064 5.419.213 9.045-2.795 10.539-7.275l11.2-33.643 11.2 33.643a10.687 10.687 0 0010.133 7.296c.128 0 .277 0 .384-.021a10.645 10.645 0 009.941-8.064l21.333-85.333a10.644 10.644 0 00-7.766-12.928z"/><path d="M437.333 74.667H74.667C33.493 74.667 0 108.16 0 149.333v213.333c0 41.173 33.493 74.667 74.667 74.667h362.667c41.173 0 74.667-33.493 74.667-74.667V149.333c-.001-41.173-33.494-74.666-74.668-74.666zm53.334 288c0 29.397-23.915 53.333-53.333 53.333H74.667c-29.419 0-53.333-23.936-53.333-53.333V149.333C21.333 119.936 45.248 96 74.667 96h362.667c29.419 0 53.333 23.936 53.333 53.333v213.334z"/></svg><svg viewBox="0 0 512 512" id="search"><path d="M208 80a128 128 0 11-90.51 37.49A127.15 127.15 0 01208 80m0-80C93.12 0 0 93.12 0 208s93.12 208 208 208 208-93.12 208-208S322.88 0 208 0z" opacity=".4"/><path d="M504.9 476.7L476.6 505a23.9 23.9 0 01-33.9 0L343 405.3a24 24 0 01-7-17V372l36-36h16.3a24 24 0 0117 7l99.7 99.7a24.11 24.11 0 01-.1 34z" class="hfa-primary"/></svg><svg viewBox="0 0 2000 2000" id="top-games_bg" xmlns="http://www.w3.org/2000/svg"><path d="M638.3 580c-5.9-5.9-15.4-5.9-21.2 0l-26 26-26-26c-5.9-5.9-15.4-5.9-21.2 0s-5.9 15.4 0 21.2l26 26-26 26c-5.9 5.9-5.9 15.4 0 21.2s15.4 5.9 21.2 0l26-26 26 26c5.9 5.9 15.4 5.9 21.2 0s5.9-15.4 0-21.2l-26-26 26-26c5.9-5.9 5.9-15.4 0-21.2zm841.3 857.2c-5.9-5.9-15.4-5.9-21.2 0l-26 26-26-26c-5.9-5.9-15.4-5.9-21.2 0-5.9 5.9-5.9 15.4 0 21.2l26 26-26 26c-5.9 5.9-5.9 15.4 0 21.2 5.9 5.9 15.4 5.9 21.2 0l26-26 26 26c5.9 5.9 15.4 5.9 21.2 0 5.9-5.9 5.9-15.4 0-21.2l-26-26 26-26c5.9-5.9 5.9-15.4 0-21.2zm-877.9 301.5c-5.9-5.9-15.4-5.9-21.2 0l-26 26-26-26c-5.9-5.9-15.4-5.9-21.2 0-5.9 5.9-5.9 15.4 0 21.2l26 26-26 26c-5.9 5.9-5.9 15.4 0 21.2 5.9 5.9 15.4 5.9 21.2 0l26-26 26 26c5.9 5.9 15.4 5.9 21.2 0 5.9-5.9 5.9-15.4 0-21.2l-26-26 26-26c5.9-5.8 5.9-15.3 0-21.2zM1736.2 305.8c5.9 5.9 15.4 5.9 21.2 0 5.9-5.9 5.9-15.4 0-21.2l-26-26 26-26c5.9-5.9 5.9-15.4 0-21.2-5.9-5.9-15.4-5.9-21.2 0l-26 26-26-26c-5.9-5.9-15.4-5.9-21.2 0-5.9 5.9-5.9 15.4 0 21.2l26 26-26 26c-5.9 5.9-5.9 15.4 0 21.2 5.9 5.9 15.4 5.9 21.2 0l26-26 26 26zM1174.9 539c-5-3.4-10.5-6-16.3-7.8-5.9-1.8-12.1-2.8-18.5-2.8-8.6 0-16.8 1.7-24.2 4.9-11.2 4.7-20.7 12.6-27.4 22.5-3.4 5-6 10.5-7.8 16.3-1.8 5.9-2.8 12.1-2.8 18.5 0 8.6 1.7 16.8 4.9 24.2 4.7 11.2 12.6 20.7 22.5 27.4 5 3.4 10.5 6 16.3 7.8 5.9 1.8 12.1 2.8 18.5 2.8 8.6 0 16.8-1.7 24.2-4.9 11.2-4.7 20.7-12.6 27.4-22.5 3.4-5 6-10.5 7.8-16.3 1.8-5.9 2.8-12.1 2.8-18.5 0-8.6-1.7-16.8-4.9-24.2-4.7-11.2-12.6-20.7-22.5-27.4zm-5.1 64.1c-2.4 5.8-6.5 10.7-11.7 14.2-2.6 1.7-5.4 3.1-8.4 4.1-3 .9-6.2 1.4-9.6 1.4-4.5 0-8.7-.9-12.6-2.5-5.8-2.4-10.7-6.5-14.2-11.7-1.7-2.6-3.1-5.4-4.1-8.4-.9-3-1.4-6.2-1.4-9.6 0-4.5.9-8.7 2.5-12.6 2.4-5.8 6.5-10.7 11.7-14.2 2.6-1.7 5.4-3.1 8.4-4.1 3-.9 6.2-1.4 9.6-1.4 4.5 0 8.7.9 12.6 2.5 5.8 2.4 10.7 6.5 14.2 11.7 1.7 2.6 3.1 5.4 4.1 8.4.9 3 1.4 6.2 1.4 9.6 0 4.6-.9 8.8-2.5 12.6zm635.1 1199.4c-5-3.4-10.5-6-16.3-7.8-5.9-1.8-12.1-2.8-18.5-2.8-8.6 0-16.8 1.7-24.2 4.9-11.2 4.7-20.7 12.6-27.4 22.5-3.4 5-6 10.5-7.8 16.3-1.8 5.9-2.8 12.1-2.8 18.5 0 8.6 1.7 16.8 4.9 24.2 4.7 11.2 12.6 20.7 22.5 27.4 5 3.4 10.5 6 16.3 7.8 5.9 1.8 12.1 2.8 18.5 2.8 8.6 0 16.8-1.7 24.2-4.9 11.2-4.7 20.7-12.6 27.4-22.5 3.4-5 6-10.5 7.8-16.3 1.8-5.9 2.8-12.1 2.8-18.5 0-8.6-1.7-16.8-4.9-24.2-4.7-11.2-12.6-20.6-22.5-27.4zm-5.1 64.2c-2.4 5.8-6.5 10.7-11.7 14.2-2.6 1.7-5.4 3.1-8.4 4.1-3 .9-6.2 1.4-9.6 1.4-4.5 0-8.7-.9-12.6-2.5-5.8-2.4-10.7-6.5-14.2-11.7-1.7-2.6-3.1-5.4-4.1-8.4-.9-3-1.4-6.2-1.4-9.6 0-4.5.9-8.7 2.5-12.6 2.4-5.8 6.5-10.7 11.7-14.2 2.6-1.7 5.4-3.1 8.4-4.1 3-.9 6.2-1.4 9.6-1.4 4.5 0 8.7.9 12.6 2.5 5.8 2.4 10.7 6.5 14.2 11.7 1.7 2.6 3.1 5.4 4.1 8.4.9 3 1.4 6.2 1.4 9.6 0 4.6-.9 8.8-2.5 12.6zm-885.1-455.3c-5-3.4-10.5-6-16.3-7.8-5.9-1.8-12.1-2.8-18.5-2.8-8.6 0-16.8 1.7-24.2 4.9-11.2 4.7-20.7 12.6-27.4 22.5-3.4 5-6 10.5-7.8 16.3-1.8 5.9-2.8 12.1-2.8 18.5 0 8.6 1.7 16.8 4.9 24.2 4.7 11.2 12.6 20.7 22.5 27.4 5 3.4 10.5 6 16.3 7.8 5.9 1.8 12.1 2.8 18.5 2.8 8.6 0 16.8-1.7 24.2-4.9 11.2-4.7 20.7-12.6 27.4-22.5 3.4-5 6-10.5 7.8-16.3 1.8-5.9 2.8-12.1 2.8-18.5 0-8.6-1.7-16.8-4.9-24.2-4.7-11.2-12.6-20.7-22.5-27.4zm-5.1 64.2c-2.4 5.8-6.5 10.7-11.7 14.2-2.6 1.7-5.4 3.1-8.4 4.1-3 .9-6.2 1.4-9.6 1.4-4.5 0-8.7-.9-12.6-2.5-5.8-2.4-10.7-6.5-14.2-11.7-1.7-2.6-3.1-5.4-4.1-8.4-.9-3-1.4-6.2-1.4-9.6 0-4.5.9-8.7 2.5-12.6 2.4-5.8 6.5-10.7 11.7-14.2 2.6-1.7 5.4-3.1 8.4-4.1 3-.9 6.2-1.4 9.6-1.4 4.5 0 8.7.9 12.6 2.5 5.8 2.4 10.7 6.5 14.2 11.7 1.7 2.6 3.1 5.4 4.1 8.4.9 3 1.4 6.2 1.4 9.6 0 4.6-.9 8.8-2.5 12.6zm1037.3-909.3c-4.7-11.2-12.6-20.7-22.5-27.4-5-3.4-10.5-6-16.3-7.8-5.9-1.8-12.1-2.8-18.5-2.8-8.6 0-16.8 1.7-24.2 4.9-11.2 4.7-20.7 12.6-27.4 22.5-3.4 5-6 10.5-7.8 16.3-1.8 5.9-2.8 12.1-2.8 18.5 0 8.6 1.7 16.8 4.9 24.2 4.7 11.2 12.6 20.7 22.5 27.4 5 3.4 10.5 6 16.3 7.8 5.9 1.8 12.1 2.8 18.5 2.8 8.6 0 16.8-1.7 24.2-4.9 11.2-4.7 20.7-12.6 27.4-22.5 3.4-5 6-10.5 7.8-16.3 1.8-5.9 2.8-12.1 2.8-18.5 0-8.5-1.8-16.7-4.9-24.2zm-27.6 36.8c-2.4 5.8-6.5 10.7-11.7 14.2-2.6 1.7-5.4 3.1-8.4 4.1-3 .9-6.2 1.4-9.6 1.4-4.5 0-8.7-.9-12.6-2.5-5.8-2.4-10.7-6.5-14.2-11.7-1.7-2.6-3.1-5.4-4.1-8.4-.9-3-1.4-6.2-1.4-9.6 0-4.5.9-8.7 2.5-12.6 2.4-5.8 6.5-10.7 11.7-14.2 2.6-1.7 5.4-3.1 8.4-4.1 3-.9 6.2-1.4 9.6-1.4 4.5 0 8.7.9 12.6 2.5 5.8 2.4 10.7 6.5 14.2 11.7 1.7 2.6 3.1 5.4 4.1 8.4.9 3 1.4 6.2 1.4 9.6 0 4.6-.9 8.8-2.5 12.6zM292.8 206.9c-5-3.4-10.5-6-16.3-7.8-5.9-1.8-12.1-2.8-18.5-2.8-8.6 0-16.8 1.7-24.2 4.9-11.2 4.7-20.7 12.6-27.4 22.5-3.4 5-6 10.5-7.8 16.3-1.8 5.9-2.8 12.1-2.8 18.5 0 8.6 1.7 16.8 4.9 24.2 4.7 11.2 12.6 20.7 22.5 27.4 5 3.4 10.5 6 16.3 7.8 5.9 1.8 12.1 2.8 18.5 2.8 8.6 0 16.8-1.7 24.2-4.9 11.2-4.7 20.7-12.6 27.4-22.5 3.4-5 6-10.5 7.8-16.3 1.8-5.9 2.8-12.1 2.8-18.5 0-8.6-1.7-16.8-4.9-24.2-4.7-11.2-12.6-20.7-22.5-27.4zm-5.1 64.2c-2.4 5.8-6.5 10.7-11.7 14.2-2.6 1.7-5.4 3.1-8.4 4.1-3 .9-6.2 1.4-9.6 1.4-4.5 0-8.7-.9-12.6-2.5-5.8-2.4-10.7-6.5-14.2-11.7-1.7-2.6-3.1-5.4-4.1-8.4-.9-3-1.4-6.2-1.4-9.6 0-4.5.9-8.7 2.5-12.6 2.4-5.8 6.5-10.7 11.7-14.2 2.6-1.7 5.4-3.1 8.4-4.1 3-.9 6.2-1.4 9.6-1.4 4.5 0 8.7.9 12.6 2.5 5.8 2.4 10.7 6.5 14.2 11.7 1.7 2.6 3.1 5.4 4.1 8.4.9 3 1.4 6.2 1.4 9.6 0 4.6-.9 8.8-2.5 12.6zm177.1 820.8c-2-1.4-4.3-2.5-6.7-3.2-2.4-.7-5-1.1-7.6-1.1-3.5 0-6.9.7-9.9 2-4.6 1.9-8.5 5.2-11.2 9.2-1.4 2-2.5 4.3-3.2 6.7-.7 2.4-1.1 5-1.1 7.6 0 3.5.7 6.9 2 9.9 1.9 4.6 5.2 8.5 9.2 11.2 2 1.4 4.3 2.5 6.7 3.2 2.4.7 5 1.1 7.6 1.1 3.5 0 6.9-.7 9.9-2 4.6-1.9 8.5-5.2 11.2-9.2 1.4-2 2.5-4.3 3.2-6.7.7-2.4 1.1-5 1.1-7.6 0-3.5-.7-6.9-2-9.9-2-4.6-5.2-8.5-9.2-11.2zm-14.3 21.1l4.3-1.3-4.3 1.3zm0 0l-1.3-4.3 1.3 4.3zm0 0l-3.7 2.5 3.7-2.5zm0 0l2.5 3.7-2.5-3.7 4.1 1.8-4.1-1.8zm740.6 662.3c-2-1.4-4.3-2.5-6.7-3.2-2.4-.7-5-1.1-7.6-1.1-3.5 0-6.9.7-9.9 2-4.6 1.9-8.5 5.2-11.2 9.2-1.4 2-2.5 4.3-3.2 6.7-.7 2.4-1.1 5-1.1 7.6 0 3.5.7 6.9 2 9.9 1.9 4.6 5.2 8.5 9.2 11.2 2 1.4 4.3 2.5 6.7 3.2 2.4.7 5 1.1 7.6 1.1 3.5 0 6.9-.7 9.9-2 4.6-1.9 8.5-5.2 11.2-9.2 1.4-2 2.5-4.3 3.2-6.7.7-2.4 1.1-5 1.1-7.6 0-3.5-.7-6.9-2-9.9-1.9-4.6-5.1-8.4-9.2-11.2zm-14.2 21.1l1.8-4.1-1.8 4.1zm0 0l-2.5-3.7 2.5 3.7zm0 0l1.3 4.3-1.3-4.3zm110.4-1595.6c-2-1.4-4.3-2.5-6.7-3.2-2.4-.7-5-1.1-7.6-1.1-3.5 0-6.9.7-9.9 2-4.6 1.9-8.5 5.2-11.2 9.2-1.4 2-2.5 4.3-3.2 6.7-.7 2.4-1.1 5-1.1 7.6 0 3.5.7 6.9 2 9.9 1.9 4.6 5.2 8.5 9.2 11.2 2 1.4 4.3 2.5 6.7 3.2 2.4.7 5 1.1 7.6 1.1 3.5 0 6.9-.7 9.9-2 4.6-1.9 8.5-5.2 11.2-9.2 1.4-2 2.5-4.3 3.2-6.7.7-2.4 1.1-5 1.1-7.6 0-3.5-.7-6.9-2-9.9-2-4.6-5.2-8.4-9.2-11.2zm-14.3 21.1l1.8-4.1-1.8 4.1zm0 .1l-4.3 1.3 4.3-1.3zm0 0l-1.8 4.1 1.8-4.1zm0 0l1.3 4.3-1.3-4.3zm0 0l4.1 1.8-4.1-1.8zm317.1 548.2c-2-1.4-4.3-2.5-6.7-3.2-2.4-.7-5-1.1-7.6-1.1-3.5 0-6.9.7-9.9 2-4.6 1.9-8.5 5.2-11.2 9.2-1.4 2-2.5 4.3-3.2 6.7-.7 2.4-1.1 5-1.1 7.6 0 3.5.7 6.9 2 9.9 1.9 4.6 5.2 8.5 9.2 11.2 2 1.4 4.3 2.5 6.7 3.2 2.4.7 5 1.1 7.6 1.1 3.5 0 6.9-.7 9.9-2 4.6-1.9 8.5-5.2 11.2-9.2 1.4-2 2.5-4.3 3.2-6.7.7-2.4 1.1-5 1.1-7.6 0-3.5-.7-6.9-2-9.9-1.9-4.6-5.1-8.5-9.2-11.2zm-14.2 21.1l4.3-1.3-4.3 1.3zm0 0l-2.5-3.7 2.5 3.7zm0 0l-1.8 4.1 1.8-4.1zm0 0l2.5 3.7-2.5-3.7 4.1 1.8-4.1-1.8zm-464.7 203.2l-86.4-5.9c-5.3-.4-10.5 2.2-13.5 6.6-3 4.4-3.4 10.2-1 15l38.1 77.8c2.4 4.8 7.1 8 12.4 8.4s10.5-2.2 13.5-6.6l48.3-71.9c3-4.4 3.4-10.2 1-15s-7-8-12.4-8.4zm-47.2 56.9l-15.2-31.1 34.6 2.4-19.4 28.7zM244.5 827.9c5.1 1.7 10.7.6 14.7-3 4-3.5 5.8-9 4.8-14.2l-17.1-84.9c-1.1-5.3-4.8-9.5-9.9-11.3s-10.7-.6-14.7 3l-65 57.2c-4 3.5-5.8 9-4.8 14.2s4.8 9.5 9.9 11.3l82.1 27.7zm-21.9-70.7l6.8 34-32.8-11.1 26-22.9zm33.6 734.6l-77.8-38.1c-4.8-2.4-10.5-2-15 1s-7 8.1-6.6 13.5l5.9 86.4c.4 5.3 3.5 10.1 8.4 12.5 4.8 2.4 10.5 2 15-1l71.9-48.3c4.4-3 7-8.1 6.6-13.5-.4-5.4-3.6-10.2-8.4-12.5zm-65.3 34.8l-2.3-34.6 31.1 15.3-28.8 19.3zM939.8 189.8l-66.4-55.6c-4.1-3.4-9.7-4.4-14.8-2.6-5 1.8-8.7 6.2-9.6 11.5l-15 85.3c-.9 5.3 1 10.6 5.1 14.1 4.1 3.4 9.7 4.4 14.8 2.6l81.3-29.7c5-1.8 8.7-6.2 9.6-11.5s-.9-10.7-5-14.1zM868.1 208l6-34.1 26.6 22.2-32.6 11.9zm883.9 955.4l-38.5 77.6c-2.4 4.8-2 10.5.9 15 3 4.5 8.1 7 13.4 6.7l86.4-5.4c5.3-.3 10.1-3.5 12.5-8.3 2.4-4.8 2-10.5-.9-15l-47.9-72.2c-3-4.5-8.1-7-13.4-6.7-5.4.4-10.2 3.5-12.5 8.3zm-.2 67.7l15.4-31 19.2 28.9-34.6 2.1z" opacity=".1"/></svg><svg viewBox="0 0 511.999 511.999" id="twitter" xmlns="http://www.w3.org/2000/svg"><path d="M507.77 96.789c-3.92-4.669-9.903-6.958-15.769-6.358a115.567 115.567 0 006.016-15.091c2.279-7.127-.123-15.046-5.97-19.699-5.849-4.662-14.103-5.232-20.545-1.416a177.052 177.052 0 01-47.157 19.455c-21.035-18.575-48.714-29.128-76.82-29.128-63.816 0-115.735 51.917-115.735 115.731 0 .714.006 1.428.019 2.142-64.801-8.793-124.951-42.372-166.494-93.332-3.765-4.618-9.554-7.099-15.467-6.617A18.139 18.139 0 0035.6 71.42c-10.258 17.603-15.68 37.727-15.68 58.199 0 18.054 4.218 35.74 12.145 51.67-1.32.393-2.602.936-3.818 1.634-5.477 3.138-8.967 9.007-9.111 15.299a70.307 70.307 0 00-.014 1.659c0 32.878 14.268 64.167 38.287 85.933-3.841 4.722-5.072 11.157-3.206 16.976 9.946 31.053 32.666 56.265 61.702 69.726-23.159 10.637-48.524 16.184-74.48 16.184-7.086 0-14.204-.416-21.147-1.238-8.439-1.004-16.336 3.885-19.202 11.89-2.863 8 .132 16.789 7.282 21.373 47.672 30.566 102.793 46.722 159.404 46.722 111.254 0 180.924-52.547 219.777-96.631 48.338-54.836 76.06-127.446 76.06-199.211 0-1.265-.008-2.537-.024-3.811 17.576-13.928 32.828-30.48 45.386-49.265 4.459-6.669 3.966-15.612-1.191-21.74zm-60.639 57.939a10.2 10.2 0 00-4.057 8.456c.086 2.799.129 5.633.129 8.425 0 66.867-25.866 134.561-70.965 185.723-36.075 40.928-100.834 89.716-204.475 89.716-49.475 0-97.73-13.257-140.171-38.423 4.596.316 9.222.475 13.837.475 37.456 0 73.838-10.387 105.213-30.038a10.205 10.205 0 004.64-10.361 10.202 10.202 0 00-7.816-8.234c-31.581-7.104-57.553-30.05-68.608-60.322 1.701.258 3.412.473 5.115.644 4.75.466 9.202-2.416 10.699-6.954a10.2 10.2 0 00-4.462-11.956c-28.06-16.734-45.763-46.996-46.651-79.439a100.071 100.071 0 0012.341 5.228 10.198 10.198 0 0011.758-3.882 10.197 10.197 0 00-.651-12.365c-14.629-17.197-22.685-39.144-22.685-61.799 0-15.768 3.9-31.279 11.306-45.069 47.495 56.842 116.675 93.062 190.337 99.529a10.2 10.2 0 0011.008-11.451 97.836 97.836 0 01-.782-12.344c0-52.566 42.768-95.332 95.336-95.332 24.725 0 49.052 9.914 66.741 27.198a10.193 10.193 0 009.323 2.665 197.24 197.24 0 0052.975-19.987c-4.049 10.366-9.853 19.856-17.303 28.281a10.2 10.2 0 0010.475 16.555 197.188 197.188 0 0017.819-6.092 194.829 194.829 0 01-40.426 41.153z"/><path d="M89.95 145.834a262.091 262.091 0 01-6.377-4.91c-4.409-3.506-10.826-2.774-14.331 1.636-3.505 4.409-2.773 10.825 1.636 14.331a280.69 280.69 0 006.874 5.294 10.156 10.156 0 006.091 2.025c3.11 0 6.182-1.418 8.183-4.102 3.368-4.516 2.439-10.905-2.076-14.274zm132.378 50.565c-36.715-3.223-73.142-14.6-105.344-32.9-4.898-2.783-11.123-1.07-13.907 3.828-2.783 4.898-1.07 11.123 3.828 13.907 34.73 19.738 74.026 32.009 113.639 35.487.304.026.605.04.904.04 5.229 0 9.682-4 10.148-9.309.492-5.612-3.657-10.56-9.268-11.053z"/></svg></svg>