<svg viewBox="0 0 448 512">
    <defs>
        <style>.fa-secondary {
            opacity: .4
            }</style>
    </defs>
    <path d="M16 288h416a16 16 0 0 0 16-16v-32a16 16 0 0 0-16-16H16a16 16 0 0 0-16 16v32a16 16 0 0 0 16 16z"
          class="fa-secondary" style="&#10;fill: #61b0f5;&#10;"/>
    <path d="M432 384H16a16 16 0 0 0-16 16v32a16 16 0 0 0 16 16h416a16 16 0 0 0 16-16v-32a16 16 0 0 0-16-16zm0-320H16A16 16 0 0 0 0 80v32a16 16 0 0 0 16 16h416a16 16 0 0 0 16-16V80a16 16 0 0 0-16-16z"
          class="fa-primary" style="&#10;fill: #61b0f5;&#10;"/>
</svg>